<?xml version="1.0" encoding="UTF-8"?>
<svg version="1.1" viewBox="0 0 12.027 2.3772" xmlns="http://www.w3.org/2000/svg" xmlns:cc="http://creativecommons.org/ns#" xmlns:dc="http://purl.org/dc/elements/1.1/" xmlns:rdf="http://www.w3.org/1999/02/22-rdf-syntax-ns#">
<metadata>
<rdf:RDF>
<cc:Work rdf:about="">
<dc:format>image/svg+xml</dc:format>
<dc:type rdf:resource="http://purl.org/dc/dcmitype/StillImage"/>
<dc:title/>
</cc:Work>
</rdf:RDF>
</metadata>
<g transform="matrix(.10197 0 0 .10197 .017255 -.4)">
<path d="m75.041 6.7953a2.2942 2.2942 0 0 1-2.2942 2.2942 2.2942 2.2942 0 0 1-2.2942-2.2942 2.2942 2.2942 0 0 1 2.2942-2.2942 2.2942 2.2942 0 0 1 2.2942 2.2942z" fill="none" stroke="#1b88c6" stroke-width="1.1567"/>
<g transform="matrix(.9689 0 0 .9689 -15.636 309.07)" fill="#fff">
<g transform="matrix(.10256 0 0 .10256 14.326 -282.64)" stroke-width="7.8517" aria-label="strat um">
<path d="m119.29-167.97q17.274 12.249 17.274 34.862 0 10.364-5.0251 19.472-4.711 9.108-13.191 16.018-8.4799 6.9095-19.786 10.992-11.307 3.7688-24.183 3.7688-9.7362 0-19.158-2.5126-9.108-2.5126-16.96-6.9095-7.8517-4.397-13.819-10.364-5.6533-6.2814-8.4799-13.819 7.2236-3.4548 16.018-7.5377 8.794-4.397 15.389-7.8518 2.8266 4.711 8.794 8.794 5.9673 3.7688 16.332 3.7688 10.678 0 15.703-5.0251 5.0251-5.0251 5.0251-9.4221 0-3.1407-3.4548-5.6533-3.4548-2.8266-7.8517-4.397-6.2814-2.5126-10.364-2.5126-4.0829-0.31407-9.4221-1.8844-16.96-4.0829-26.068-10.678-8.794-6.9095-12.877-13.819-4.0829-6.9095-4.711-13.191-0.31407-6.2814-0.31407-10.05 0-10.05 4.397-19.158 4.397-9.108 11.935-15.703 7.8517-6.9095 17.902-10.992 10.364-4.0829 21.985-4.0829 9.7362 0 18.53 2.8266 8.794 2.8266 16.018 7.8517 7.2236 5.0251 12.249 11.935 5.3392 6.9095 7.8518 15.389l-33.605 11.307q-1.8844-5.6533-7.8517-9.108-5.6533-3.4548-12.249-3.4548-6.5955 0-10.678 4.397-4.0829 4.397-4.0829 8.794 0 5.3392 3.7688 8.4799 4.0829 2.8266 8.794 4.0829 3.4548 0.62814 6.5955 1.2563 3.4548 0.31407 6.5955 0.94221 10.992 2.5126 18.844 5.6533 8.1658 3.1407 14.133 7.5377z"/>
<path d="m217.08-142.21q0 10.992 6.5955 16.96 6.9095 5.9673 17.902 5.9673 8.794 0 17.588-3.4548v36.432q-7.8518 2.5126-16.646 4.0829-8.794 1.8844-17.588 1.8844-10.05 0-19.158-2.5126-9.108-2.5126-16.332-8.4799-7.2236-6.2814-11.621-16.332-4.0829-10.364-4.0829-25.44v-70.352h-22.299v-29.208l22.299-9.4221v-34.862h43.342v34.862h42.085v38.631h-42.085z"/>
<path d="m322.55-220.42q3.1407-5.0251 7.2236-9.4221 4.0829-4.711 9.7362-8.1658 5.6533-3.7688 12.877-5.9673 7.2236-2.1985 16.332-2.1985 10.678 0 24.812 3.7688l-4.0829 38.631q-3.4548-0.62814-6.9095-1.5703-2.8266-0.62814-6.2814-0.94221-3.4548-0.62814-6.2814-0.62814-10.05 0-18.844 2.8266-8.4799 2.8266-14.761 7.8518-6.2814 5.0251-10.05 12.249-3.7688 6.9095-3.7688 15.075v82.6h-43.342v-155.78h39.259z"/>
<path d="m572.27-242.09v155.78h-37.374l-4.397-16.646q-9.108 12.249-21.985 16.332-12.563 4.0829-26.382 4.0829-16.646 0-30.779-6.2814-13.819-6.5955-24.183-17.588-10.364-11.307-16.332-26.068-5.6533-15.075-5.6533-32.035t5.6533-31.721q5.9673-15.075 16.332-26.068 10.364-11.307 24.183-17.588 14.133-6.5955 30.779-6.5955 15.075 0 27.638 4.711 12.563 4.711 20.729 15.075l4.397-15.389zm-43.342 78.203q0-12.249-3.4548-20.415-3.1407-8.4799-8.794-13.505-5.3392-5.3392-12.877-7.5377-7.2236-2.5126-15.703-2.5126-8.4799 0-16.018 3.4548-7.2236 3.4548-12.877 9.4221-5.6532 5.6533-8.794 13.819-3.1407 7.8518-3.1407 16.646 0 9.108 3.1407 16.96 3.1407 7.8518 8.794 13.819 5.6533 5.6532 12.877 9.108 7.5377 3.4548 16.018 3.4548 16.96 0 28.58-10.364 11.935-10.678 12.249-32.349z"/>
<path d="m654.45-142.21q0 10.992 6.5955 16.96 6.9095 5.9673 17.902 5.9673 8.794 0 17.588-3.4548v36.432q-7.8517 2.5126-16.646 4.0829-8.794 1.8844-17.588 1.8844-10.05 0-19.158-2.5126-9.108-2.5126-16.332-8.4799-7.2236-6.2814-11.621-16.332-4.0829-10.364-4.0829-25.44v-70.352h-22.299v-29.208l22.299-9.4221v-34.862h43.342v34.862h42.085v38.631h-42.085z"/>
<path d="m902.31-242.09h43.342v155.78h-37.06l-6.2814-11.935q-7.5377 5.3392-17.274 8.794-9.4221 3.1407-20.415 3.1407-8.4799 0-19.472-2.5126-10.678-2.5126-20.1-9.4221t-16.018-19.158q-6.2814-12.249-6.2814-31.721v-92.965h43.656v91.394q0 7.2236 2.1985 12.249 2.5126 5.0251 6.2814 8.1658 4.0829 2.8266 9.108 4.397 5.0251 1.2563 10.364 1.2563 4.0829 0 8.794-1.2563 5.0251-1.5704 9.108-4.711 4.397-3.1407 7.2236-8.1658t2.8266-11.935z"/>
<path d="m1147.6-242.09q8.4799 0 18.216 2.8266 9.7361 2.8266 17.902 10.05 8.4799 7.2236 13.819 19.786 5.3392 12.563 5.3392 32.035v91.08h-43.342v-83.228q0-9.4221-2.1985-16.018-1.8844-6.5955-5.3392-10.678t-8.1658-5.6533q-4.397-1.8844-9.108-1.8844-4.397 0-8.794 1.5704t-7.8517 5.3392q-3.4548 3.7688-5.6533 10.364-1.8844 6.5955-1.8844 16.646v83.543h-43.342v-83.228q0-19.158-6.5954-26.696-6.5955-7.5377-19.158-7.5377-9.108 0-16.332 8.4799t-7.2236 26.382v82.6h-43.342v-155.78h37.06l6.2814 14.447q7.2236-6.9095 16.646-10.678 9.7361-3.7688 20.729-3.7688 5.6532 0 11.935 1.2563 6.2814 0.9422 12.249 3.7688 5.9673 2.8266 11.306 7.5377 5.6532 4.397 10.05 11.307 3.7688-5.9673 9.108-10.364 5.3392-4.711 11.621-7.5377 6.2814-3.1407 12.877-4.397 6.9095-1.5704 13.191-1.5704z"/>
</g>
<path d="m89.009-307.48h4.4665v15.973h-4.4665z"/>
</g>
</g>
</svg>
