<?xml version="1.0" encoding="UTF-8" standalone="no"?>
<!-- Created with Inkscape (http://www.inkscape.org/) -->

<svg
   xmlns:dc="http://purl.org/dc/elements/1.1/"
   xmlns:cc="http://creativecommons.org/ns#"
   xmlns:rdf="http://www.w3.org/1999/02/22-rdf-syntax-ns#"
   xmlns:svg="http://www.w3.org/2000/svg"
   xmlns="http://www.w3.org/2000/svg"
   xmlns:sodipodi="http://sodipodi.sourceforge.net/DTD/sodipodi-0.dtd"
   xmlns:inkscape="http://www.inkscape.org/namespaces/inkscape"
   version="1.1"
   id="svg815"
   width="12.026666"
   height="2.3772089"
   viewBox="0 0 12.026667 2.3772089"
   sodipodi:docname="logo.svg"
   inkscape:version="0.92.3 (2405546, 2018-03-11)">
  <metadata
     id="metadata821">
    <rdf:RDF>
      <cc:Work
         rdf:about="">
        <dc:format>image/svg+xml</dc:format>
        <dc:type
           rdf:resource="http://purl.org/dc/dcmitype/StillImage" />
        <dc:title></dc:title>
      </cc:Work>
    </rdf:RDF>
  </metadata>
  <defs
     id="defs819">
    <clipPath
       clipPathUnits="userSpaceOnUse"
       id="clipPath4556">
      <g
         style="fill:#f165f1;fill-opacity:0.94117647"
         id="use4558"
         inkscape:label="Clip">
        <g
           id="g4815"
           style="font-style:normal;font-variant:normal;font-weight:bold;font-stretch:normal;font-size:310.56893921px;line-height:1.25;font-family:Kollektif;-inkscape-font-specification:'Kollektif Bold';letter-spacing:0px;word-spacing:0px;fill:#f165f1;fill-opacity:0.94117647;stroke:none;stroke-width:7.76422358"
           transform="scale(0.97957317,1.0208528)"
           aria-label="strat um">
          <path
             id="path4801"
             style="font-style:normal;font-variant:normal;font-weight:bold;font-stretch:normal;font-family:Kollektif;-inkscape-font-specification:'Kollektif Bold';fill:#f165f1;fill-opacity:0.94117647;stroke-width:7.76422358"
             d="m 118.80203,-171.11677 q 17.08129,12.11219 17.08129,34.47315 0,10.24878 -4.9691,19.25528 -4.65854,9.0065 -13.0439,15.83902 -8.38536,6.832512 -19.565841,10.869908 -11.180482,3.726827 -23.913808,3.726827 -9.627637,0 -18.944706,-2.484551 -9.006499,-2.484552 -16.770722,-6.832517 -7.764224,-4.347967 -13.665034,-10.248777 -5.59024,-6.21138 -8.385361,-13.66503 7.143086,-3.41626 15.839016,-7.45366 8.69593,-4.34796 15.217878,-7.76422 2.79512,4.65853 8.69593,8.69593 5.90081,3.72683 16.149585,3.72683 10.559344,0 15.528447,-4.9691 4.969103,-4.96911 4.969103,-9.31707 0,-3.10569 -3.416258,-5.59024 -3.416259,-2.79512 -7.764224,-4.34797 -6.211378,-2.48455 -10.248775,-2.48455 -4.037396,-0.31057 -9.317068,-1.86341 -16.770723,-4.0374 -25.777222,-10.55935 -8.69593,-6.83251 -12.733326,-13.66503 -4.037397,-6.83252 -4.658534,-13.0439 -0.310569,-6.21138 -0.310569,-9.9382 0,-9.93821 4.347965,-18.94471 4.347965,-9.0065 11.80162,-15.52845 7.764223,-6.83251 17.702429,-10.86991 10.248775,-4.03739 21.739826,-4.03739 9.627637,0 18.323567,2.79512 8.695932,2.79512 15.839012,7.76422 7.14309,4.9691 12.11219,11.80162 5.27967,6.83252 7.76423,15.21788 l -33.23088,11.18048 q -1.863414,-5.59024 -7.764224,-9.0065 -5.590241,-3.41626 -12.112188,-3.41626 -6.521948,0 -10.559344,4.34797 -4.037397,4.34796 -4.037397,8.69593 0,5.27967 3.726828,8.38536 4.037396,2.79512 8.69593,4.03739 3.416258,0.62114 6.521948,1.24228 3.416258,0.31057 6.521947,0.93171 10.869913,2.48455 18.63414,5.59024 8.07479,3.10569 13.9756,7.45365 z"
             inkscape:connector-curvature="0" />
          <path
             id="path4803"
             style="font-style:normal;font-variant:normal;font-weight:bold;font-stretch:normal;font-family:Kollektif;-inkscape-font-specification:'Kollektif Bold';fill:#f165f1;fill-opacity:0.94117647;stroke-width:7.76422358"
             d="m 215.50058,-145.65011 q 0,10.86991 6.52195,16.77072 6.83251,5.90081 17.70243,5.90081 8.69593,0 17.39186,-3.41626 v 36.025997 q -7.76423,2.484551 -16.46016,4.037396 -8.69593,1.863414 -17.39186,1.863414 -9.9382,0 -18.9447,-2.484552 -9.0065,-2.484551 -16.14959,-8.385361 -7.14308,-6.211374 -11.49105,-16.149584 -4.0374,-10.24878 -4.0374,-25.15609 v -69.56744 h -22.05039 v -28.88291 l 22.05039,-9.31707 v -34.47315 h 42.85852 v 34.47315 h 41.61624 v 38.19998 h -41.61624 z"
             inkscape:connector-curvature="0" />
          <path
             id="path4805"
             style="font-style:normal;font-variant:normal;font-weight:bold;font-stretch:normal;font-family:Kollektif;-inkscape-font-specification:'Kollektif Bold';fill:#f165f1;fill-opacity:0.94117647;stroke-width:7.76422358"
             d="m 319.7935,-222.98178 q 3.10569,-4.9691 7.14309,-9.31707 4.03739,-4.65853 9.62763,-8.07479 5.59025,-3.72683 12.73333,-5.90081 7.14309,-2.17398 16.14959,-2.17398 10.55934,0 24.53494,3.72682 l -4.03739,38.19998 q -3.41626,-0.62113 -6.83252,-1.55284 -2.79512,-0.62114 -6.21138,-0.93171 -3.41626,-0.62114 -6.21138,-0.62114 -9.9382,0 -18.63413,2.79512 -8.38537,2.79513 -14.59674,7.76423 -6.21138,4.9691 -9.93821,12.11219 -3.72683,6.83251 -3.72683,14.90731 v 81.679627 H 276.93499 V -244.41104 h 38.82112 z"
             inkscape:connector-curvature="0" />
          <path
             id="path4807"
             style="font-style:normal;font-variant:normal;font-weight:bold;font-stretch:normal;font-family:Kollektif;-inkscape-font-specification:'Kollektif Bold';fill:#f165f1;fill-opacity:0.94117647;stroke-width:7.76422358"
             d="M 566.72978,-244.41104 V -90.368843 H 529.77207 L 525.42411,-106.829 q -9.0065,12.112192 -21.73983,16.149588 -12.42275,4.037396 -26.08779,4.037396 -16.46015,0 -30.43575,-6.211379 -13.66504,-6.521947 -23.91381,-17.391865 -10.24878,-11.18048 -16.14959,-25.77722 -5.59024,-14.90731 -5.59024,-31.67803 0,-16.77072 5.59024,-31.36746 5.90081,-14.90731 16.14959,-25.77722 10.24877,-11.18049 23.91381,-17.39186 13.9756,-6.52195 30.43575,-6.52195 14.90731,0 27.33007,4.65853 12.42276,4.65854 20.49755,14.90731 l 4.34796,-15.21788 z m -42.85852,77.33167 q 0,-12.11219 -3.41625,-20.18698 -3.10569,-8.38536 -8.69593,-13.35447 -5.27968,-5.27967 -12.73333,-7.45365 -7.14309,-2.48455 -15.52845,-2.48455 -8.38536,0 -15.83901,3.41626 -7.14309,3.41625 -12.73333,9.31706 -5.59024,5.59024 -8.69593,13.66504 -3.10569,7.76422 -3.10569,16.46015 0,9.0065 3.10569,16.77072 3.10569,7.76423 8.69593,13.66504 5.59024,5.59024 12.73333,9.0065 7.45365,3.41625 15.83901,3.41625 16.77073,0 28.26178,-10.24877 11.80162,-10.55934 12.11218,-31.9886 z"
             inkscape:connector-curvature="0" />
          <path
             id="path4809"
             style="font-style:normal;font-variant:normal;font-weight:bold;font-stretch:normal;font-family:Kollektif;-inkscape-font-specification:'Kollektif Bold';fill:#f165f1;fill-opacity:0.94117647;stroke-width:7.76422358"
             d="m 647.99211,-145.65011 q 0,10.86991 6.52195,16.77072 6.83251,5.90081 17.70243,5.90081 8.69593,0 17.39186,-3.41626 v 36.025997 q -7.76423,2.484551 -16.46016,4.037396 -8.69593,1.863414 -17.39186,1.863414 -9.9382,0 -18.9447,-2.484552 -9.0065,-2.484551 -16.14959,-8.385361 -7.14308,-6.211374 -11.49105,-16.149584 -4.03739,-10.24878 -4.03739,-25.15609 v -69.56744 h -22.0504 v -28.88291 l 22.0504,-9.31707 v -34.47315 h 42.85851 v 34.47315 h 41.61624 v 38.19998 h -41.61624 z"
             inkscape:connector-curvature="0" />
          <path
             id="path4811"
             style="font-style:normal;font-variant:normal;font-weight:bold;font-stretch:normal;font-family:Kollektif;-inkscape-font-specification:'Kollektif Bold';fill:#f165f1;fill-opacity:0.94117647;stroke-width:7.76422358"
             d="m 893.09406,-244.41104 h 42.85851 v 154.042197 h -36.64713 l -6.21138,-11.801617 q -7.45365,5.279669 -17.08129,8.695928 -9.31707,3.105689 -20.18698,3.105689 -8.38536,0 -19.25528,-2.484552 -10.55934,-2.484551 -19.87641,-9.317065 -9.31707,-6.83252 -15.83901,-18.94471 -6.21138,-12.11219 -6.21138,-31.36746 v -91.92841 h 43.16908 v 90.37556 q 0,7.14309 2.17398,12.11219 2.48455,4.96911 6.21138,8.0748 4.0374,2.79512 9.0065,4.34796 4.9691,1.24228 10.24877,1.24228 4.0374,0 8.69593,-1.24228 4.96911,-1.55284 9.0065,-4.65853 4.34797,-3.10569 7.14309,-8.0748 2.79512,-4.9691 2.79512,-11.80162 z"
             inkscape:connector-curvature="0" />
          <path
             id="path4813"
             style="font-style:normal;font-variant:normal;font-weight:bold;font-stretch:normal;font-family:Kollektif;-inkscape-font-specification:'Kollektif Bold';fill:#f165f1;fill-opacity:0.94117647;stroke-width:7.76422358"
             d="m 1135.6387,-244.41104 q 8.3853,0 18.013,2.79512 9.6276,2.79512 17.7024,9.93821 8.3854,7.14309 13.665,19.56584 5.2797,12.42276 5.2797,31.67803 v 90.064997 h -42.8585 v -82.300767 q 0,-9.31707 -2.174,-15.83902 -1.8634,-6.52195 -5.2797,-10.55934 -3.4162,-4.0374 -8.0747,-5.59024 -4.348,-1.86342 -9.0065,-1.86342 -4.348,0 -8.696,1.55285 -4.3479,1.55284 -7.7642,5.27967 -3.4163,3.72683 -5.5902,10.24878 -1.8635,6.52194 -1.8635,16.46015 v 82.611337 h -42.8585 v -82.300767 q 0,-18.94471 -6.5219,-26.39836 -6.522,-7.45366 -18.9447,-7.45366 -9.0065,0 -16.1496,8.38537 -7.1431,8.38536 -7.1431,26.08779 v 81.679627 H 964.51519 V -244.41104 h 36.64711 l 6.2114,14.28617 q 7.1431,-6.83251 16.4602,-10.55934 9.6276,-3.72683 20.4975,-3.72683 5.5903,0 11.8016,1.24228 6.2114,0.93171 12.1122,3.72683 5.9008,2.79512 11.1805,7.45365 5.5902,4.34797 9.9382,11.18048 3.7268,-5.90081 9.0065,-10.24877 5.2797,-4.65854 11.4911,-7.45366 6.2113,-3.10569 12.7333,-4.34796 6.8325,-1.55285 13.0439,-1.55285 z"
             inkscape:connector-curvature="0" />
        </g>
        <path
           id="path4817"
           d="m 706.24036,-250.02528 h 41.72865 v 157.76762 h -41.72865 z"
           style="fill:#f165f1;fill-opacity:0.94117647;stroke:none;stroke-width:5.96855164;stroke-miterlimit:4;stroke-dasharray:none;stroke-opacity:1"
           inkscape:connector-curvature="0" />
      </g>
    </clipPath>
  </defs>
  <sodipodi:namedview
     pagecolor="#ffffff"
     bordercolor="#666666"
     borderopacity="1"
     objecttolerance="10"
     gridtolerance="10"
     guidetolerance="10"
     inkscape:pageopacity="0"
     inkscape:pageshadow="2"
     inkscape:window-width="1920"
     inkscape:window-height="1017"
     id="namedview817"
     showgrid="false"
     showguides="true"
     inkscape:guide-bbox="true"
     inkscape:zoom="110.95396"
     inkscape:cx="8.1184421"
     inkscape:cy="0.81897083"
     inkscape:window-x="-8"
     inkscape:window-y="-8"
     inkscape:window-maximized="1"
     inkscape:current-layer="g4828"
     fit-margin-top="0"
     fit-margin-left="0"
     fit-margin-right="0"
     fit-margin-bottom="0"
     inkscape:pagecheckerboard="true" />
  <g
     id="g4828"
     transform="matrix(0.10196951,0,0,0.10196951,0.01725511,-0.39999996)">
    <g
       style="font-style:normal;font-weight:normal;font-size:40px;line-height:1.25;font-family:sans-serif;letter-spacing:0px;word-spacing:0px;fill:#000000;fill-opacity:1;stroke:none"
       id="text4539" />
    <path
       style="color:#000000;font-style:normal;font-variant:normal;font-weight:normal;font-stretch:normal;font-size:medium;line-height:normal;font-family:sans-serif;font-variant-ligatures:normal;font-variant-position:normal;font-variant-caps:normal;font-variant-numeric:normal;font-variant-alternates:normal;font-feature-settings:normal;text-indent:0;text-align:start;text-decoration:none;text-decoration-line:none;text-decoration-style:solid;text-decoration-color:#000000;letter-spacing:normal;word-spacing:normal;text-transform:none;writing-mode:lr-tb;direction:ltr;text-orientation:mixed;dominant-baseline:auto;baseline-shift:baseline;text-anchor:start;white-space:normal;shape-padding:0;clip-rule:nonzero;display:inline;overflow:visible;visibility:visible;opacity:1;isolation:auto;mix-blend-mode:normal;color-interpolation:sRGB;color-interpolation-filters:linearRGB;solid-color:#000000;solid-opacity:1;vector-effect:none;fill:#1b88c6;fill-opacity:1;fill-rule:nonzero;stroke:none;stroke-width:1.15668857;stroke-linecap:butt;stroke-linejoin:miter;stroke-miterlimit:4;stroke-dasharray:none;stroke-dashoffset:0;stroke-opacity:1;color-rendering:auto;image-rendering:auto;shape-rendering:auto;text-rendering:auto;enable-background:accumulate"
       d="m 72.746094,3.921875 c -1.579617,-3e-7 -2.873047,1.2934299 -2.873047,2.8730469 0,1.579617 1.29343,2.8730471 2.873047,2.8730469 1.579616,-5e-7 2.873047,-1.2934303 2.873047,-2.8730469 0,-1.5796166 -1.293431,-2.8730465 -2.873047,-2.8730469 z m 0,1.1582031 c 0.954496,3e-7 1.716797,0.760348 1.716797,1.7148438 0,0.9544958 -0.762301,1.7167966 -1.716797,1.7167969 -0.954496,10e-8 -1.714844,-0.7623008 -1.714844,-1.7167969 0,-0.9544961 0.760348,-1.7148439 1.714844,-1.7148438 z"
       id="path4543"
       inkscape:connector-curvature="0" />
    <g
       style="fill:#ffffff;fill-opacity:1"
       transform="matrix(0.96890037,0,0,0.96890037,-15.635924,309.07367)"
       id="g4799">
      <g
         aria-label="strat um"
         style="font-style:normal;font-weight:normal;font-size:314.06982422px;line-height:1.25;font-family:sans-serif;letter-spacing:0px;word-spacing:0px;fill:#ffffff;fill-opacity:1;stroke:none;stroke-width:7.85174561"
         id="text4781"
         transform="matrix(0.10256049,0,0,0.10256049,14.325965,-282.64464)" />
      <path
         id="rect4794"
         style="fill:#ffffff;fill-opacity:1;stroke:none;stroke-width:1.15668857;stroke-miterlimit:4;stroke-dasharray:none;stroke-opacity:1"
         d="m 89.008793,-307.47868 h 4.466468 v 15.9728 h -4.466468 z m 43.014677,0.006 q 0.8697,0 1.86825,0.2899 0.99854,0.2899 1.83603,1.03075 0.8697,0.74086 1.41729,2.02931 0.54759,1.28844 0.54759,3.28553 v 9.34124 h -4.44513 v -8.53596 q 0,-0.96633 -0.22548,-1.64277 -0.19327,-0.67643 -0.54759,-1.09517 -0.35433,-0.41875 -0.83749,-0.57981 -0.45096,-0.19326 -0.93412,-0.19326 -0.45096,0 -0.90192,0.16105 -0.45096,0.16106 -0.80527,0.54759 -0.35433,0.38654 -0.57981,1.06297 -0.19326,0.67644 -0.19326,1.70719 v 8.56817 h -4.44515 v -8.53596 q 0,-1.96488 -0.67643,-2.73794 -0.67643,-0.77307 -1.96488,-0.77307 -0.93412,0 -1.67498,0.8697 -0.74085,0.8697 -0.74085,2.70574 v 8.47153 h -4.44514 v -15.97673 h 3.80091 l 0.64423,1.48171 q 0.74085,-0.70865 1.70719,-1.09518 0.99854,-0.38653 2.12593,-0.38653 0.5798,0 1.22402,0.12884 0.64423,0.0966 1.25625,0.38654 0.612,0.2899 1.1596,0.77306 0.57979,0.45096 1.03075,1.1596 0.38653,-0.61201 0.93412,-1.06296 0.54759,-0.48317 1.19181,-0.77307 0.64423,-0.32211 1.32067,-0.45096 0.70864,-0.16105 1.35286,-0.16105 z m -25.1559,0 h 4.44514 v 15.97673 h -3.80092 l -0.64422,-1.22402 q -0.77307,0.54759 -1.77162,0.90191 -0.96633,0.32211 -2.09372,0.32211 -0.8697,0 -1.99709,-0.25769 -1.095182,-0.25769 -2.061517,-0.96633 -0.966334,-0.70865 -1.642768,-1.96488 -0.644224,-1.25624 -0.644224,-3.25333 v -9.5345 h 4.477349 v 9.37344 q 0,0.74086 0.22548,1.25624 0.25769,0.51538 0.64422,0.83749 0.41875,0.2899 0.93413,0.45095 0.51538,0.12885 1.06296,0.12885 0.41875,0 0.90192,-0.12885 0.51538,-0.16105 0.93412,-0.48316 0.45096,-0.32211 0.74086,-0.83749 0.2899,-0.51538 0.2899,-1.22403 z m -25.421153,10.24314 q 0,1.12739 0.676434,1.73941 0.708646,0.61201 1.836036,0.61201 0.901912,0 1.803824,-0.35432 v 3.73649 q -0.805278,0.25769 -1.707191,0.41874 -0.901912,0.19327 -1.803825,0.19327 -1.030756,0 -1.96488,-0.25769 -0.934123,-0.25769 -1.67498,-0.8697 -0.740856,-0.64422 -1.191812,-1.67498 -0.418746,-1.06297 -0.418746,-2.6091 v -7.2153 h -2.286992 v -2.99564 l 2.286992,-0.96633 v -3.57544 h 4.44514 v 3.57544 h 4.316294 v 3.96197 h -4.316294 z m -8.428246,-10.24314 v 15.97673 h -3.833127 l -0.450956,-1.70719 q -0.934123,1.25623 -2.254781,1.67498 -1.288446,0.41874 -2.705737,0.41874 -1.707191,0 -3.156693,-0.64422 -1.417292,-0.67643 -2.480259,-1.80382 -1.062968,-1.15961 -1.67498,-2.67353 -0.579801,-1.54614 -0.579801,-3.28554 0,-1.7394 0.579801,-3.25332 0.612012,-1.54614 1.67498,-2.67353 1.062967,-1.1596 2.480259,-1.80383 1.449502,-0.67643 3.156693,-0.67643 1.546135,0 2.834581,0.48317 1.288447,0.48317 2.125937,1.54613 l 0.450956,-1.57834 z m -4.445139,8.02057 q 0,-1.25623 -0.354322,-2.09372 -0.322112,-0.8697 -0.901913,-1.38508 -0.54759,-0.54759 -1.320657,-0.77307 -0.740857,-0.25769 -1.610558,-0.25769 -0.869701,0 -1.642769,0.35433 -0.740857,0.35432 -1.320658,0.96633 -0.5798,0.5798 -0.901911,1.41729 -0.322112,0.80528 -0.322112,1.70719 0,0.93413 0.322112,1.7394 0.322111,0.80528 0.901911,1.4173 0.579801,0.5798 1.320658,0.93412 0.773068,0.35432 1.642769,0.35432 1.739403,0 2.931215,-1.06297 1.224023,-1.09518 1.256235,-3.31775 z m -21.166256,-5.798 q 0.322112,-0.51538 0.740857,-0.96634 0.418745,-0.48317 0.998546,-0.83749 0.579801,-0.38653 1.320658,-0.61201 0.740856,-0.22548 1.67498,-0.22548 1.095178,0 2.54468,0.38654 l -0.418744,3.96197 q -0.354323,-0.0644 -0.708646,-0.16106 -0.2899,-0.0644 -0.644223,-0.0966 -0.354322,-0.0644 -0.644223,-0.0644 -1.030757,0 -1.932669,0.2899 -0.869702,0.2899 -1.513924,0.80528 -0.644224,0.51537 -1.030758,1.25623 -0.386534,0.70865 -0.386534,1.54614 v 8.47153 h -4.445139 v -15.97673 h 4.026395 z m -10.816907,8.02057 q 0,1.12739 0.676435,1.73941 0.708645,0.61201 1.836035,0.61201 0.901912,0 1.803825,-0.35432 v 3.73649 q -0.805279,0.25769 -1.707191,0.41874 -0.901913,0.19327 -1.803825,0.19327 -1.030757,0 -1.96488,-0.25769 -0.934124,-0.25769 -1.67498,-0.8697 -0.740857,-0.64422 -1.191814,-1.67498 -0.418744,-1.06297 -0.418744,-2.6091 v -7.2153 h -2.286992 v -2.99564 l 2.286992,-0.96633 v -3.57544 h 4.445139 v 3.57544 h 4.316295 v 3.96197 h -4.316295 z m -10.029245,-2.64131 q 1.771614,1.25623 1.771614,3.57544 0,1.06297 -0.515379,1.99709 -0.483168,0.93412 -1.352868,1.64277 -0.869702,0.70864 -2.029303,1.12739 -1.159602,0.38653 -2.480259,0.38653 -0.998546,0 -1.964881,-0.25769 -0.934123,-0.25769 -1.739402,-0.70864 -0.805279,-0.45096 -1.417291,-1.06297 -0.579801,-0.64422 -0.869701,-1.41729 0.740856,-0.35432 1.642769,-0.77307 0.901912,-0.45096 1.578346,-0.80528 0.289901,0.48317 0.901913,0.90191 0.612012,0.38654 1.67498,0.38654 1.095179,0 1.610558,-0.51538 0.515378,-0.51538 0.515378,-0.96633 0,-0.32212 -0.354323,-0.57981 -0.354322,-0.2899 -0.805279,-0.45095 -0.644223,-0.25769 -1.062968,-0.25769 -0.418745,-0.0322 -0.966334,-0.19327 -1.739403,-0.41874 -2.673526,-1.09518 -0.901913,-0.70864 -1.320658,-1.41729 -0.418745,-0.70864 -0.483167,-1.35287 -0.03221,-0.64422 -0.03221,-1.03075 0,-1.03076 0.450956,-1.96488 0.450956,-0.93413 1.224024,-1.61056 0.805279,-0.70865 1.836036,-1.12739 1.062968,-0.41875 2.254781,-0.41875 0.998546,0 1.900458,0.2899 0.901913,0.2899 1.642769,0.80528 0.740857,0.51538 1.256234,1.22403 0.54759,0.70864 0.80528,1.57834 l -3.446594,1.1596 q -0.193267,-0.5798 -0.805279,-0.93412 -0.579801,-0.35432 -1.256235,-0.35432 -0.676434,0 -1.095179,0.45095 -0.418745,0.45096 -0.418745,0.90192 0,0.54759 0.386534,0.8697 0.418745,0.2899 0.901912,0.41874 0.354323,0.0644 0.676434,0.12885 0.354323,0.0322 0.676435,0.0966 1.12739,0.25769 1.932669,0.5798 0.83749,0.32211 1.449502,0.77307 z" />
    </g>
  </g>
</svg>
