<?xml version="1.0" encoding="UTF-8" standalone="no"?>
<!-- Created with Inkscape (http://www.inkscape.org/) -->

<svg
   xmlns:dc="http://purl.org/dc/elements/1.1/"
   xmlns:cc="http://creativecommons.org/ns#"
   xmlns:rdf="http://www.w3.org/1999/02/22-rdf-syntax-ns#"
   xmlns:svg="http://www.w3.org/2000/svg"
   xmlns="http://www.w3.org/2000/svg"
   xmlns:sodipodi="http://sodipodi.sourceforge.net/DTD/sodipodi-0.dtd"
   xmlns:inkscape="http://www.inkscape.org/namespaces/inkscape"
   version="1.1"
   id="svg815"
   width="12.026666"
   height="2.3772089"
   viewBox="0 0 12.026667 2.3772089"
   sodipodi:docname="logo.svg"
   inkscape:version="0.92.3 (2405546, 2018-03-11)">
  <metadata
     id="metadata821">
    <rdf:RDF>
      <cc:Work
         rdf:about="">
        <dc:format>image/svg+xml</dc:format>
        <dc:type
           rdf:resource="http://purl.org/dc/dcmitype/StillImage" />
        <dc:title></dc:title>
      </cc:Work>
    </rdf:RDF>
  </metadata>
  <defs
     id="defs819">
    <clipPath
       clipPathUnits="userSpaceOnUse"
       id="clipPath4556">
      <g
         style="fill:#f165f1;fill-opacity:0.94117647"
         id="use4558"
         inkscape:label="Clip">
        <g
           id="g4815"
           style="font-style:normal;font-variant:normal;font-weight:bold;font-stretch:normal;font-size:310.56893921px;line-height:1.25;font-family:Kollektif;-inkscape-font-specification:'Kollektif Bold';letter-spacing:0px;word-spacing:0px;fill:#f165f1;fill-opacity:0.94117647;stroke:none;stroke-width:7.76422358"
           transform="scale(0.97957317,1.0208528)"
           aria-label="strat um">
          <path
             id="path4801"
             style="font-style:normal;font-variant:normal;font-weight:bold;font-stretch:normal;font-family:Kollektif;-inkscape-font-specification:'Kollektif Bold';fill:#f165f1;fill-opacity:0.94117647;stroke-width:7.76422358"
             d="m 118.80203,-171.11677 q 17.08129,12.11219 17.08129,34.47315 0,10.24878 -4.9691,19.25528 -4.65854,9.0065 -13.0439,15.83902 -8.38536,6.832512 -19.565841,10.869908 -11.180482,3.726827 -23.913808,3.726827 -9.627637,0 -18.944706,-2.484551 -9.006499,-2.484552 -16.770722,-6.832517 -7.764224,-4.347967 -13.665034,-10.248777 -5.59024,-6.21138 -8.385361,-13.66503 7.143086,-3.41626 15.839016,-7.45366 8.69593,-4.34796 15.217878,-7.76422 2.79512,4.65853 8.69593,8.69593 5.90081,3.72683 16.149585,3.72683 10.559344,0 15.528447,-4.9691 4.969103,-4.96911 4.969103,-9.31707 0,-3.10569 -3.416258,-5.59024 -3.416259,-2.79512 -7.764224,-4.34797 -6.211378,-2.48455 -10.248775,-2.48455 -4.037396,-0.31057 -9.317068,-1.86341 -16.770723,-4.0374 -25.777222,-10.55935 -8.69593,-6.83251 -12.733326,-13.66503 -4.037397,-6.83252 -4.658534,-13.0439 -0.310569,-6.21138 -0.310569,-9.9382 0,-9.93821 4.347965,-18.94471 4.347965,-9.0065 11.80162,-15.52845 7.764223,-6.83251 17.702429,-10.86991 10.248775,-4.03739 21.739826,-4.03739 9.627637,0 18.323567,2.79512 8.695932,2.79512 15.839012,7.76422 7.14309,4.9691 12.11219,11.80162 5.27967,6.83252 7.76423,15.21788 l -33.23088,11.18048 q -1.863414,-5.59024 -7.764224,-9.0065 -5.590241,-3.41626 -12.112188,-3.41626 -6.521948,0 -10.559344,4.34797 -4.037397,4.34796 -4.037397,8.69593 0,5.27967 3.726828,8.38536 4.037396,2.79512 8.69593,4.03739 3.416258,0.62114 6.521948,1.24228 3.416258,0.31057 6.521947,0.93171 10.869913,2.48455 18.63414,5.59024 8.07479,3.10569 13.9756,7.45365 z"
             inkscape:connector-curvature="0" />
          <path
             id="path4803"
             style="font-style:normal;font-variant:normal;font-weight:bold;font-stretch:normal;font-family:Kollektif;-inkscape-font-specification:'Kollektif Bold';fill:#f165f1;fill-opacity:0.94117647;stroke-width:7.76422358"
             d="m 215.50058,-145.65011 q 0,10.86991 6.52195,16.77072 6.83251,5.90081 17.70243,5.90081 8.69593,0 17.39186,-3.41626 v 36.025997 q -7.76423,2.484551 -16.46016,4.037396 -8.69593,1.863414 -17.39186,1.863414 -9.9382,0 -18.9447,-2.484552 -9.0065,-2.484551 -16.14959,-8.385361 -7.14308,-6.211374 -11.49105,-16.149584 -4.0374,-10.24878 -4.0374,-25.15609 v -69.56744 h -22.05039 v -28.88291 l 22.05039,-9.31707 v -34.47315 h 42.85852 v 34.47315 h 41.61624 v 38.19998 h -41.61624 z"
             inkscape:connector-curvature="0" />
          <path
             id="path4805"
             style="font-style:normal;font-variant:normal;font-weight:bold;font-stretch:normal;font-family:Kollektif;-inkscape-font-specification:'Kollektif Bold';fill:#f165f1;fill-opacity:0.94117647;stroke-width:7.76422358"
             d="m 319.7935,-222.98178 q 3.10569,-4.9691 7.14309,-9.31707 4.03739,-4.65853 9.62763,-8.07479 5.59025,-3.72683 12.73333,-5.90081 7.14309,-2.17398 16.14959,-2.17398 10.55934,0 24.53494,3.72682 l -4.03739,38.19998 q -3.41626,-0.62113 -6.83252,-1.55284 -2.79512,-0.62114 -6.21138,-0.93171 -3.41626,-0.62114 -6.21138,-0.62114 -9.9382,0 -18.63413,2.79512 -8.38537,2.79513 -14.59674,7.76423 -6.21138,4.9691 -9.93821,12.11219 -3.72683,6.83251 -3.72683,14.90731 v 81.679627 H 276.93499 V -244.41104 h 38.82112 z"
             inkscape:connector-curvature="0" />
          <path
             id="path4807"
             style="font-style:normal;font-variant:normal;font-weight:bold;font-stretch:normal;font-family:Kollektif;-inkscape-font-specification:'Kollektif Bold';fill:#f165f1;fill-opacity:0.94117647;stroke-width:7.76422358"
             d="M 566.72978,-244.41104 V -90.368843 H 529.77207 L 525.42411,-106.829 q -9.0065,12.112192 -21.73983,16.149588 -12.42275,4.037396 -26.08779,4.037396 -16.46015,0 -30.43575,-6.211379 -13.66504,-6.521947 -23.91381,-17.391865 -10.24878,-11.18048 -16.14959,-25.77722 -5.59024,-14.90731 -5.59024,-31.67803 0,-16.77072 5.59024,-31.36746 5.90081,-14.90731 16.14959,-25.77722 10.24877,-11.18049 23.91381,-17.39186 13.9756,-6.52195 30.43575,-6.52195 14.90731,0 27.33007,4.65853 12.42276,4.65854 20.49755,14.90731 l 4.34796,-15.21788 z m -42.85852,77.33167 q 0,-12.11219 -3.41625,-20.18698 -3.10569,-8.38536 -8.69593,-13.35447 -5.27968,-5.27967 -12.73333,-7.45365 -7.14309,-2.48455 -15.52845,-2.48455 -8.38536,0 -15.83901,3.41626 -7.14309,3.41625 -12.73333,9.31706 -5.59024,5.59024 -8.69593,13.66504 -3.10569,7.76422 -3.10569,16.46015 0,9.0065 3.10569,16.77072 3.10569,7.76423 8.69593,13.66504 5.59024,5.59024 12.73333,9.0065 7.45365,3.41625 15.83901,3.41625 16.77073,0 28.26178,-10.24877 11.80162,-10.55934 12.11218,-31.9886 z"
             inkscape:connector-curvature="0" />
          <path
             id="path4809"
             style="font-style:normal;font-variant:normal;font-weight:bold;font-stretch:normal;font-family:Kollektif;-inkscape-font-specification:'Kollektif Bold';fill:#f165f1;fill-opacity:0.94117647;stroke-width:7.76422358"
             d="m 647.99211,-145.65011 q 0,10.86991 6.52195,16.77072 6.83251,5.90081 17.70243,5.90081 8.69593,0 17.39186,-3.41626 v 36.025997 q -7.76423,2.484551 -16.46016,4.037396 -8.69593,1.863414 -17.39186,1.863414 -9.9382,0 -18.9447,-2.484552 -9.0065,-2.484551 -16.14959,-8.385361 -7.14308,-6.211374 -11.49105,-16.149584 -4.03739,-10.24878 -4.03739,-25.15609 v -69.56744 h -22.0504 v -28.88291 l 22.0504,-9.31707 v -34.47315 h 42.85851 v 34.47315 h 41.61624 v 38.19998 h -41.61624 z"
             inkscape:connector-curvature="0" />
          <path
             id="path4811"
             style="font-style:normal;font-variant:normal;font-weight:bold;font-stretch:normal;font-family:Kollektif;-inkscape-font-specification:'Kollektif Bold';fill:#f165f1;fill-opacity:0.94117647;stroke-width:7.76422358"
             d="m 893.09406,-244.41104 h 42.85851 v 154.042197 h -36.64713 l -6.21138,-11.801617 q -7.45365,5.279669 -17.08129,8.695928 -9.31707,3.105689 -20.18698,3.105689 -8.38536,0 -19.25528,-2.484552 -10.55934,-2.484551 -19.87641,-9.317065 -9.31707,-6.83252 -15.83901,-18.94471 -6.21138,-12.11219 -6.21138,-31.36746 v -91.92841 h 43.16908 v 90.37556 q 0,7.14309 2.17398,12.11219 2.48455,4.96911 6.21138,8.0748 4.0374,2.79512 9.0065,4.34796 4.9691,1.24228 10.24877,1.24228 4.0374,0 8.69593,-1.24228 4.96911,-1.55284 9.0065,-4.65853 4.34797,-3.10569 7.14309,-8.0748 2.79512,-4.9691 2.79512,-11.80162 z"
             inkscape:connector-curvature="0" />
          <path
             id="path4813"
             style="font-style:normal;font-variant:normal;font-weight:bold;font-stretch:normal;font-family:Kollektif;-inkscape-font-specification:'Kollektif Bold';fill:#f165f1;fill-opacity:0.94117647;stroke-width:7.76422358"
             d="m 1135.6387,-244.41104 q 8.3853,0 18.013,2.79512 9.6276,2.79512 17.7024,9.93821 8.3854,7.14309 13.665,19.56584 5.2797,12.42276 5.2797,31.67803 v 90.064997 h -42.8585 v -82.300767 q 0,-9.31707 -2.174,-15.83902 -1.8634,-6.52195 -5.2797,-10.55934 -3.4162,-4.0374 -8.0747,-5.59024 -4.348,-1.86342 -9.0065,-1.86342 -4.348,0 -8.696,1.55285 -4.3479,1.55284 -7.7642,5.27967 -3.4163,3.72683 -5.5902,10.24878 -1.8635,6.52194 -1.8635,16.46015 v 82.611337 h -42.8585 v -82.300767 q 0,-18.94471 -6.5219,-26.39836 -6.522,-7.45366 -18.9447,-7.45366 -9.0065,0 -16.1496,8.38537 -7.1431,8.38536 -7.1431,26.08779 v 81.679627 H 964.51519 V -244.41104 h 36.64711 l 6.2114,14.28617 q 7.1431,-6.83251 16.4602,-10.55934 9.6276,-3.72683 20.4975,-3.72683 5.5903,0 11.8016,1.24228 6.2114,0.93171 12.1122,3.72683 5.9008,2.79512 11.1805,7.45365 5.5902,4.34797 9.9382,11.18048 3.7268,-5.90081 9.0065,-10.24877 5.2797,-4.65854 11.4911,-7.45366 6.2113,-3.10569 12.7333,-4.34796 6.8325,-1.55285 13.0439,-1.55285 z"
             inkscape:connector-curvature="0" />
        </g>
        <path
           id="path4817"
           d="m 706.24036,-250.02528 h 41.72865 v 157.76762 h -41.72865 z"
           style="fill:#f165f1;fill-opacity:0.94117647;stroke:none;stroke-width:5.96855164;stroke-miterlimit:4;stroke-dasharray:none;stroke-opacity:1"
           inkscape:connector-curvature="0" />
      </g>
    </clipPath>
  </defs>
  <sodipodi:namedview
     pagecolor="#ffffff"
     bordercolor="#666666"
     borderopacity="1"
     objecttolerance="10"
     gridtolerance="10"
     guidetolerance="10"
     inkscape:pageopacity="0"
     inkscape:pageshadow="2"
     inkscape:window-width="1920"
     inkscape:window-height="1017"
     id="namedview817"
     showgrid="false"
     showguides="true"
     inkscape:guide-bbox="true"
     inkscape:zoom="4.9035184"
     inkscape:cx="112.35725"
     inkscape:cy="43.402622"
     inkscape:window-x="-8"
     inkscape:window-y="-8"
     inkscape:window-maximized="1"
     inkscape:current-layer="g4799"
     fit-margin-top="0"
     fit-margin-left="0"
     fit-margin-right="0"
     fit-margin-bottom="0"
     inkscape:pagecheckerboard="true" />
  <g
     id="g4828"
     transform="matrix(0.10196951,0,0,0.10196951,0.01725511,-0.39999996)">
    <g
       style="font-style:normal;font-weight:normal;font-size:40px;line-height:1.25;font-family:sans-serif;letter-spacing:0px;word-spacing:0px;fill:#000000;fill-opacity:1;stroke:none"
       id="text4539" />
    <path
       style="fill:none;fill-opacity:1;stroke:#1b88c6;stroke-width:1.15668857;stroke-miterlimit:4;stroke-dasharray:none;stroke-opacity:1"
       d="M 75.04053,6.7952936 A 2.2942086,2.2942086 0 0 1 72.746322,9.0895022 2.2942086,2.2942086 0 0 1 70.452113,6.7952936 2.2942086,2.2942086 0 0 1 72.746322,4.5010851 2.2942086,2.2942086 0 0 1 75.04053,6.7952936 Z"
       id="path4543"
       inkscape:connector-curvature="0" />
    <g
       style="fill:#ffffff;fill-opacity:1"
       transform="matrix(0.96890037,0,0,0.96890037,-15.635924,309.07367)"
       id="g4799">
      <g
         aria-label="strat um"
         style="font-style:normal;font-weight:normal;font-size:314.06982422px;line-height:1.25;font-family:sans-serif;letter-spacing:0px;word-spacing:0px;fill:#ffffff;fill-opacity:1;stroke:none;stroke-width:7.85174561"
         id="text4781"
         transform="matrix(0.10256049,0,0,0.10256049,14.325965,-282.64464)">
        <path
           d="m 119.29213,-167.96586 q 17.27384,12.24873 17.27384,34.86176 0,10.3643 -5.02512,19.47232 -4.71105,9.10803 -13.19093,16.017565 -8.47989,6.909536 -19.786402,10.992444 -11.306514,3.768838 -24.183377,3.768838 -9.736164,0 -19.158259,-2.512559 -9.108025,-2.512558 -16.959771,-6.909536 -7.851745,-4.396977 -13.819072,-10.364302 -5.653257,-6.2814 -8.479885,-13.81907 7.223606,-3.45477 16.017561,-7.53768 8.793955,-4.39698 15.389421,-7.85175 2.826629,4.71105 8.793955,8.79396 5.967327,3.76884 16.331631,3.76884 10.678374,0 15.703491,-5.02512 5.025118,-5.02512 5.025118,-9.42209 0,-3.1407 -3.454768,-5.65326 -3.454769,-2.82663 -7.851746,-4.39698 -6.281397,-2.51256 -10.364304,-2.51256 -4.082908,-0.31407 -9.422095,-1.88442 -16.959771,-4.0829 -26.067795,-10.67837 -8.793956,-6.90954 -12.876863,-13.81907 -4.082908,-6.90954 -4.711048,-13.19094 -0.314069,-6.28139 -0.314069,-10.05023 0,-10.05023 4.396977,-19.15826 4.396978,-9.10802 11.934653,-15.70349 7.851746,-6.90954 17.90198,-10.99244 10.364305,-4.08291 21.984888,-4.08291 9.736165,0 18.53012,2.82663 8.793959,2.82663 16.017559,7.85174 7.22361,5.02512 12.24872,11.93466 5.33919,6.90953 7.85175,15.38942 l -33.605471,11.30651 q -1.884419,-5.65326 -7.851745,-9.10802 -5.653257,-3.45477 -12.248723,-3.45477 -6.595467,0 -10.678374,4.39698 -4.082908,4.39697 -4.082908,8.79395 0,5.33919 3.768838,8.47989 4.082907,2.82662 8.793955,4.0829 3.454768,0.62814 6.595466,1.25628 3.454768,0.31407 6.595466,0.94221 10.992444,2.51256 18.844186,5.65326 8.16582,3.1407 14.13315,7.53767 z"
           style="font-style:normal;font-variant:normal;font-weight:bold;font-stretch:normal;font-family:Kollektif;-inkscape-font-specification:'Kollektif Bold';fill:#ffffff;fill-opacity:1;stroke-width:7.85174561"
           id="path4832"
           inkscape:connector-curvature="0" />
        <path
           d="m 217.08071,-142.21213 q 0,10.99244 6.59547,16.95977 6.90954,5.96733 17.90198,5.96733 8.79395,0 17.58791,-3.45477 v 36.432099 q -7.85175,2.512558 -16.6457,4.082908 -8.79396,1.884419 -17.58791,1.884419 -10.05024,0 -19.15826,-2.512559 -9.10803,-2.512559 -16.33163,-8.479885 -7.22361,-6.281397 -11.62059,-16.331632 -4.0829,-10.3643 -4.0829,-25.43965 v -70.35165 h -22.29896 v -29.20849 l 22.29896,-9.42209 v -34.86175 h 43.34163 v 34.86175 h 42.08536 v 38.63058 h -42.08536 z"
           style="font-style:normal;font-variant:normal;font-weight:bold;font-stretch:normal;font-family:Kollektif;-inkscape-font-specification:'Kollektif Bold';fill:#ffffff;fill-opacity:1;stroke-width:7.85174561"
           id="path4834"
           inkscape:connector-curvature="0" />
        <path
           d="m 322.54927,-220.41552 q 3.1407,-5.02511 7.22361,-9.42209 4.08291,-4.71105 9.73616,-8.16582 5.65326,-3.76883 12.87687,-5.96732 7.2236,-2.19849 16.33163,-2.19849 10.67837,0 24.81151,3.76884 l -4.0829,38.63058 q -3.45477,-0.62814 -6.90954,-1.57034 -2.82663,-0.62814 -6.2814,-0.94221 -3.45476,-0.62814 -6.28139,-0.62814 -10.05024,0 -18.84419,2.82662 -8.47989,2.82663 -14.76128,7.85175 -6.2814,5.02512 -10.05024,12.24872 -3.76884,6.90954 -3.76884,15.07536 v 82.600359 H 279.20764 V -242.08633 h 39.25873 z"
           style="font-style:normal;font-variant:normal;font-weight:bold;font-stretch:normal;font-family:Kollektif;-inkscape-font-specification:'Kollektif Bold';fill:#ffffff;fill-opacity:1;stroke-width:7.85174561"
           id="path4836"
           inkscape:connector-curvature="0" />
        <path
           d="m 572.26917,-242.08633 v 155.778629 h -37.37431 l -4.39698,-16.645699 q -9.10802,12.248721 -21.98488,16.331629 -12.5628,4.082908 -26.38187,4.082908 -16.6457,0 -30.77884,-6.281397 -13.81908,-6.595466 -24.18338,-17.58791 -10.3643,-11.30651 -16.33163,-26.0678 -5.65326,-15.07535 -5.65326,-32.03512 0,-16.95977 5.65326,-31.72105 5.96733,-15.07535 16.33163,-26.06779 10.3643,-11.30652 24.18338,-17.58792 14.13314,-6.59546 30.77884,-6.59546 15.07535,0 27.63814,4.71105 12.5628,4.71104 20.72861,15.07535 l 4.39698,-15.38942 z m -43.34164,78.20338 q 0,-12.24872 -3.45476,-20.41454 -3.1407,-8.47988 -8.79396,-13.505 -5.33919,-5.33919 -12.87686,-7.53767 -7.22361,-2.51256 -15.70349,-2.51256 -8.47989,0 -16.01756,3.45476 -7.22361,3.45477 -12.87687,9.4221 -5.65325,5.65326 -8.79395,13.81907 -3.1407,7.85175 -3.1407,16.6457 0,9.10803 3.1407,16.95977 3.1407,7.85175 8.79395,13.81908 5.65326,5.65325 12.87687,9.10802 7.53767,3.45477 16.01756,3.45477 16.95977,0 28.58035,-10.36431 11.93465,-10.67837 12.24872,-32.34919 z"
           style="font-style:normal;font-variant:normal;font-weight:bold;font-stretch:normal;font-family:Kollektif;-inkscape-font-specification:'Kollektif Bold';fill:#ffffff;fill-opacity:1;stroke-width:7.85174561"
           id="path4838"
           inkscape:connector-curvature="0" />
        <path
           d="m 654.44746,-142.21213 q 0,10.99244 6.59546,16.95977 6.90954,5.96733 17.90198,5.96733 8.79396,0 17.58791,-3.45477 v 36.432099 q -7.85174,2.512558 -16.6457,4.082908 -8.79395,1.884419 -17.58791,1.884419 -10.05023,0 -19.15826,-2.512559 -9.10802,-2.512559 -16.33163,-8.479885 -7.2236,-6.281397 -11.62058,-16.331632 -4.08291,-10.3643 -4.08291,-25.43965 v -70.35165 h -22.29896 v -29.20849 l 22.29896,-9.42209 v -34.86175 h 43.34164 v 34.86175 h 42.08535 v 38.63058 h -42.08535 z"
           style="font-style:normal;font-variant:normal;font-weight:bold;font-stretch:normal;font-family:Kollektif;-inkscape-font-specification:'Kollektif Bold';fill:#ffffff;fill-opacity:1;stroke-width:7.85174561"
           id="path4840"
           inkscape:connector-curvature="0" />
        <path
           d="m 902.31241,-242.08633 h 43.34163 V -86.307701 H 908.5938 l -6.28139,-11.934653 q -7.53768,5.339187 -17.27384,8.793955 -9.4221,3.140698 -20.41454,3.140698 -8.47989,0 -19.47233,-2.512559 -10.67838,-2.512558 -20.10047,-9.422094 -9.42209,-6.909536 -16.01756,-19.158256 -6.2814,-12.24873 -6.2814,-31.72106 v -92.96466 h 43.65571 v 91.39431 q 0,7.22361 2.19849,12.24873 2.51256,5.02512 6.28139,8.16581 4.08291,2.82663 9.10803,4.39698 5.02512,1.25628 10.3643,1.25628 4.08291,0 8.79396,-1.25628 5.02511,-1.57035 9.10802,-4.71105 4.39698,-3.14069 7.22361,-8.16581 2.82663,-5.02512 2.82663,-11.93466 z"
           style="font-style:normal;font-variant:normal;font-weight:bold;font-stretch:normal;font-family:Kollektif;-inkscape-font-specification:'Kollektif Bold';fill:#ffffff;fill-opacity:1;stroke-width:7.85174561"
           id="path4842"
           inkscape:connector-curvature="0" />
        <path
           d="m 1147.5911,-242.08633 q 8.4799,0 18.2161,2.82662 9.7361,2.82663 17.9019,10.05024 8.4799,7.2236 13.8191,19.7864 5.3392,12.56279 5.3392,32.03512 v 91.080249 h -43.3416 V -169.5362 q 0,-9.4221 -2.1985,-16.01757 -1.8844,-6.59546 -5.3392,-10.67837 -3.4548,-4.08291 -8.1658,-5.65326 -4.397,-1.88442 -9.108,-1.88442 -4.397,0 -8.794,1.57035 -4.397,1.57035 -7.8517,5.33919 -3.4548,3.76884 -5.6533,10.3643 -1.8844,6.59547 -1.8844,16.64571 v 83.542569 h -43.3417 V -169.5362 q 0,-19.15826 -6.5954,-26.69594 -6.5955,-7.53768 -19.1583,-7.53768 -9.108,0 -16.3316,8.47989 -7.2236,8.47989 -7.2236,26.38187 v 82.600359 H 974.53864 V -242.08633 h 37.06026 l 6.2814,14.44721 q 7.2236,-6.90954 16.6457,-10.67838 9.7361,-3.76883 20.7286,-3.76883 5.6532,0 11.9346,1.25628 6.2814,0.9422 12.2488,3.76883 5.9673,2.82663 11.3065,7.53768 5.6532,4.39698 10.0502,11.30651 3.7688,-5.96732 9.108,-10.3643 5.3392,-4.71105 11.6206,-7.53768 6.2814,-3.1407 12.8769,-4.39697 6.9095,-1.57035 13.1909,-1.57035 z"
           style="font-style:normal;font-variant:normal;font-weight:bold;font-stretch:normal;font-family:Kollektif;-inkscape-font-specification:'Kollektif Bold';fill:#ffffff;fill-opacity:1;stroke-width:7.85174561"
           id="path4844"
           inkscape:connector-curvature="0" />
      </g>
      <path
         style="fill:#ffffff;fill-opacity:1;stroke:none;stroke-width:1.15668857;stroke-miterlimit:4;stroke-dasharray:none;stroke-opacity:1"
         d="m 89.008793,-307.47868 h 4.466468 v 15.9728 h -4.466468 z"
         id="rect4794"
         inkscape:connector-curvature="0" />
    </g>
  </g>
</svg>
