<?xml version="1.0" encoding="UTF-8" standalone="no"?>
<!-- Created with Inkscape (http://www.inkscape.org/) -->

<svg
   xmlns:dc="http://purl.org/dc/elements/1.1/"
   xmlns:cc="http://creativecommons.org/ns#"
   xmlns:rdf="http://www.w3.org/1999/02/22-rdf-syntax-ns#"
   xmlns:svg="http://www.w3.org/2000/svg"
   xmlns="http://www.w3.org/2000/svg"
   xmlns:sodipodi="http://sodipodi.sourceforge.net/DTD/sodipodi-0.dtd"
   xmlns:inkscape="http://www.inkscape.org/namespaces/inkscape"
   version="1.1"
   id="svg3778"
   width="76.862122"
   height="80"
   viewBox="0 0 76.862122 80"
   sodipodi:docname="services_consulting.svg"
   inkscape:version="0.92.3 (2405546, 2018-03-11)">
  <metadata
     id="metadata3784">
    <rdf:RDF>
      <cc:Work
         rdf:about="">
        <dc:format>image/svg+xml</dc:format>
        <dc:type
           rdf:resource="http://purl.org/dc/dcmitype/StillImage" />
        <dc:title />
      </cc:Work>
    </rdf:RDF>
  </metadata>
  <defs
     id="defs3782" />
  <sodipodi:namedview
     pagecolor="#ffffff"
     bordercolor="#666666"
     borderopacity="1"
     objecttolerance="10"
     gridtolerance="10"
     guidetolerance="10"
     inkscape:pageopacity="0"
     inkscape:pageshadow="2"
     inkscape:window-width="1920"
     inkscape:window-height="1017"
     id="namedview3780"
     showgrid="false"
     fit-margin-top="0"
     fit-margin-left="0"
     fit-margin-right="0"
     fit-margin-bottom="0"
     inkscape:zoom="2.95"
     inkscape:cx="75.779664"
     inkscape:cy="-31.864407"
     inkscape:window-x="-8"
     inkscape:window-y="-8"
     inkscape:window-maximized="1"
     inkscape:current-layer="svg3778" />
  <path
     style="fill:#e5e5e5;fill-opacity:1"
     d="M 0,70 V 60 H 10 20 V 70 80 H 10 0 Z m 16,0 V 64 H 10 4 v 6 6 h 6 6 z m 12.516684,2.026995 C 26.983743,69.546645 29.713481,69 43.632341,69 c 13.284412,0 14.485852,0.148289 14.178494,1.75 -0.297916,1.552507 -1.934019,1.78126 -14.497624,2.026995 -8.911028,0.174293 -14.397144,-0.103785 -14.796527,-0.75 z M 61.69175,71.639096 C 60.81203,69.346583 61.868978,69 69.739991,69 c 6.514504,0 7.366435,0.210793 7.072728,1.75 -0.274233,1.437156 -1.60614,1.802081 -7.450475,2.04133 -5.477234,0.224221 -7.24415,-0.0412 -7.670494,-1.152234 z M 0,40 V 30 H 10 20 V 40 50 H 10 0 Z m 16,0 V 34 H 10 4 v 6 6 h 6 6 z m -9.989431,2.512735 c -1.728464,-2.082672 -0.494036,-4.800957 1.843323,-4.059108 1.078482,0.342297 2.396153,-0.04999 3.12737,-0.931049 C 12.7139,35.434877 15,35.607303 15,37.825686 15,40.013769 11.002346,44 8.807994,44 7.948287,44 6.689446,43.330731 6.010569,42.512735 Z M 28.521074,42.034099 C 27.070263,39.686636 29.584815,39 39.632341,39 c 9.474598,0 10.481176,0.173049 10.179257,1.75 -0.28848,1.506757 -1.746998,1.789489 -10.493233,2.034099 -6.226382,0.174136 -10.405554,-0.116157 -10.797291,-0.75 z m 25.999337,-0.0011 C 53.056822,39.664888 55.602344,39 66.132341,39 c 9.950837,0 10.981945,0.168969 10.679128,1.75 -0.290051,1.514378 -1.770279,1.788107 -10.993896,2.033026 -6.562477,0.174257 -10.904077,-0.113975 -11.297162,-0.75 z M 0,10 V 0 H 10 20 V 10 20 H 10 0 Z m 16,0 V 4 H 10 4 v 6 6 h 6 6 z M 6.654988,13.171259 C 4.355854,10.630745 4.531898,8.644326 6.999004,9.289489 8.098457,9.577002 9.248518,9.406906 9.554698,8.911498 9.860877,8.416089 10.993001,7.53893 12.07053,6.962254 c 3.37266,-1.804993 3.628536,1.69864 0.372276,5.097444 -3.309618,3.454497 -3.614501,3.51305 -5.787818,1.111561 z M 28.5,12 C 26.955873,9.50155 29.807854,9 45.559017,9 61.333333,9 62,9.0811 62,11 62,12.918902 61.333333,13 45.559017,13 35.677051,13 28.871474,12.601057 28.5,12 Z"
     id="path3792"
     inkscape:connector-curvature="0" />
</svg>
