<?xml version="1.0" encoding="UTF-8" standalone="no"?>
<!-- Created with Inkscape (http://www.inkscape.org/) -->

<svg
   xmlns:dc="http://purl.org/dc/elements/1.1/"
   xmlns:cc="http://creativecommons.org/ns#"
   xmlns:rdf="http://www.w3.org/1999/02/22-rdf-syntax-ns#"
   xmlns:svg="http://www.w3.org/2000/svg"
   xmlns="http://www.w3.org/2000/svg"
   xmlns:sodipodi="http://sodipodi.sourceforge.net/DTD/sodipodi-0.dtd"
   xmlns:inkscape="http://www.inkscape.org/namespaces/inkscape"
   version="1.1"
   id="svg3758"
   width="80"
   height="62"
   viewBox="0 0 80 62"
   sodipodi:docname="services_appdev.svg"
   inkscape:version="0.92.3 (2405546, 2018-03-11)">
  <metadata
     id="metadata3764">
    <rdf:RDF>
      <cc:Work
         rdf:about="">
        <dc:format>image/svg+xml</dc:format>
        <dc:type
           rdf:resource="http://purl.org/dc/dcmitype/StillImage" />
        <dc:title />
      </cc:Work>
    </rdf:RDF>
  </metadata>
  <defs
     id="defs3762" />
  <sodipodi:namedview
     pagecolor="#ffffff"
     bordercolor="#666666"
     borderopacity="1"
     objecttolerance="10"
     gridtolerance="10"
     guidetolerance="10"
     inkscape:pageopacity="0"
     inkscape:pageshadow="2"
     inkscape:window-width="1920"
     inkscape:window-height="1017"
     id="namedview3760"
     showgrid="false"
     fit-margin-top="0"
     fit-margin-left="0"
     fit-margin-right="0"
     fit-margin-bottom="0"
     inkscape:zoom="2.085965"
     inkscape:cx="-128.67148"
     inkscape:cy="5.1794003"
     inkscape:window-x="-8"
     inkscape:window-y="-8"
     inkscape:window-maximized="1"
     inkscape:current-layer="svg3758" />
  <path
     style="fill:#e5e5e5;fill-opacity:1"
     d="M 2,60 C 0.09877,58.098765 0,56.666667 0,31 0,5.333333 0.0988,3.901235 2,2 3.92593,0.074074 5.33334,0 40,0 c 34.66667,0 36.07408,0.07407 38,2 1.90124,1.901235 2,3.333333 2,29 0,25.666667 -0.0988,27.098765 -2,29 -1.92592,1.925926 -3.33333,2 -38,2 C 5.33334,62 3.92593,61.92593 2,60 Z M 76,37.5 V 17 H 40 4 V 37.5 58 H 40 76 Z M 21.20821,42.712148 C 18.8937,40.35383 17,37.749414 17,36.924557 c 0,-0.824858 2.24719,-3.713137 4.99375,-6.4184 3.90785,-3.849088 5.25695,-4.655457 6.20414,-3.708266 0.9472,0.947192 0.25092,2.188026 -3.20195,5.706251 L 20.58359,37 24.81432,41.310806 C 28.75581,45.326889 29.26376,47 26.54154,47 25.92272,47 23.52272,45.070467 21.20821,42.712148 Z M 33,45.8461 C 33,43.152172 43.42996,26 45.0681,26 46.95691,26 45.87655,29.003355 40.7897,37.8938 36.16104,45.983451 33,49.210474 33,45.8461 Z m 18.64414,0.464706 c -0.37906,-0.379057 1.21464,-2.629057 3.54154,-5 L 59.41642,37 55.00407,32.504142 C 51.55119,28.985917 50.85492,27.745083 51.80211,26.797891 52.7493,25.8507 54.0984,26.657069 58.00625,30.506157 60.75282,33.21142 63,36.099699 63,36.924557 63,38.674054 55.11525,47 53.45846,47 52.83964,47 52.0232,46.689863 51.64414,46.310806 Z M 76,9.0000003 V 4 H 40 4 V 9.0000003 14 H 40 76 Z M 7.4309,8.8881973 C 6.67706,7.6684493 8.92296,5.834354 10.20226,6.6250003 10.64102,6.8961693 11,7.7664763 11,8.5590173 11,10.255937 8.4231,10.493606 7.4309,8.8881973 Z M 16,8.6666673 C 16,6.7857903 16.96233,6.048315 18.59777,6.6758903 20.72483,7.4921193 20.27384,10 18,10 16.9,10 16,9.4000003 16,8.6666673 Z m 8,-0.05968 C 24,7.0985573 26.42909,5.762421 27.40224,6.7355663 28.71914,8.0524753 27.88259,10 26,10 24.9,10 24,9.3731453 24,8.6069893 Z"
     id="path3770"
     inkscape:connector-curvature="0" />
</svg>
