<svg viewBox="0 0 34.8 38.3" width="35" height="38" xmlns="http://www.w3.org/2000/svg"><path d="M15.1 37.3C14.3 36.7 13.6 35.6 13.5 34.6 13.2 33.2 12.7 32.7 10.4 31.4 8 30.1 7.6 30 6.7 30.7 4.3 32.4 0 30.7 0 28c0-1.5 1-3.4 2-3.8 0.8-0.2 0.9-0.8 0.9-4.4 0-3.9-0.1-4.2-1.5-5.6C-0.3 12.6-0.4 11 1.1 9.1 2.1 7.8 2.3 7.8 4.8 8 7.2 8.3 7.8 8.1 10.4 6.7 12.7 5.4 13.2 4.9 13.5 3.6 13.8 1.9 15.8 0 17.3 0c2.1 0 4.3 1.9 4.3 3.8 0 1.7 5.5 4.7 7.6 4.3 2.3-0.5 3.4-0.3 4.6 1.1 1.5 1.7 1.4 3.4-0.4 5.2 -1.4 1.4-1.5 1.7-1.5 5.3 0 3.2 0.2 4 0.9 4.5 2.2 1.6 2.6 4.3 0.8 6.1 -1.4 1.4-3.9 1.6-5.5 0.5 -0.9-0.6-1.2-0.5-3.8 0.8 -2.3 1.2-2.8 1.8-2.8 2.8 0 1.4-0.8 2.6-2.3 3.4 -1.6 0.8-2.8 0.7-4.2-0.4Zm4.3-1.5c0.7-0.8 0.8-1.3 0.4-2.3 -0.6-1.8-3.2-2.1-4.3-0.5 -1 1.4-1 1.7 0.2 2.9 1.3 1.3 2.6 1.2 3.7 0Zm-2.7-9.6c0-3.6-0.1-4-1-4.3 -0.9-0.3-1.9-1.9-2.6-4.3 -0.1-0.5-1.4-1.4-2.8-2.1C7.7 14.2 7.7 14.2 6.1 15l-1.7 0.9 0 3.7c0 3.6 0.1 3.7 1.6 4.7 0.9 0.6 1.8 1.7 2.1 2.7 0.4 1.3 1.2 2.1 3.1 3.2 2.5 1.5 2.6 1.5 4 0.7 1.3-0.8 1.4-0.9 1.4-4.8Zm9.8 1.5c0-1.3 1.7-3.5 3-3.9 0.9-0.3 1-0.8 1-4.1 0-3.8 0-3.8-1.6-4.6 -1.6-0.9-1.6-0.9-4.4 0.7 -2.3 1.2-2.8 1.8-2.8 2.7 0 1.2-1.9 3.6-2.9 3.6 -0.3 0-0.5 1.6-0.5 4.2 0 3.2 0.2 4.2 0.7 4.2 0.4 0 0.9 0.3 1.3 0.7 0.5 0.6 1 0.5 3.5-0.9 2.1-1.2 2.9-1.9 2.9-2.6ZM5.7 29.6c1.1-0.7 1.2-2.4 0.3-3.6 -0.8-1-1.1-1.1-2.3-0.7 -1.9 0.7-2.5 1.8-1.8 3.4 0.4 0.9 0.9 1.3 1.9 1.3 0.7 0 1.6-0.2 1.9-0.4ZM33.1 28.3c0.4-1.2 0.3-1.5-0.7-2.3 -1.6-1.3-2.8-1.2-3.8 0.3 -0.7 1.1-0.7 1.3 0 2.5 1.2 1.8 3.7 1.5 4.4-0.4ZM19.8 19c0.6-1.6-0.7-3.3-2.4-3.3 -1.9 0-3 2.3-1.9 3.9 1.1 1.6 3.7 1.2 4.3-0.6Zm-4.4-4.1c1.2-0.9 3.2-0.9 4.6 0 1 0.7 1.3 0.6 3.8-0.6 2.3-1.1 2.7-1.5 2.7-2.7 0-0.8 0-1.5 0.1-1.7 0-0.2-1.2-1.1-2.7-2C21.2 6.4 21 6.3 20.1 7.1 19 8.2 16.6 8.2 15.1 7.2 14 6.5 13.7 6.5 11 8.1 9.4 8.9 8.2 9.8 8.2 10c0.1 0.2 0.1 0.9 0.1 1.5 0 0.9 0.6 1.5 2.6 2.7 2.9 1.7 3.2 1.8 4.5 0.8ZM6.3 12.7c0.7-1.2 0.7-1.4-0.2-2.4 -1.4-1.5-3.8-1.2-4.4 0.7 -0.4 1.2-0.3 1.5 0.7 2.4 1.5 1.2 3 1 3.9-0.7ZM32.5 13.3C33.4 12.5 33.5 12.2 33.1 11 32.4 9.1 30.8 8.6 29.2 9.9c-1.5 1.2-1.6 2.1-0.3 3.4 1.2 1.2 2 1.2 3.5 0.1ZM19.8 4.8c1-2.9-3.2-4.5-4.7-1.8 -0.4 0.8-0.4 1.3 0.3 2.2 1.1 1.7 3.7 1.5 4.4-0.4Z" style="fill:#e5e5e5;stroke-width:0.5"/></svg>