<svg viewBox="0 0 79 53.4" width="79" height="53" xmlns="http://www.w3.org/2000/svg"><path d="M12.2 52.1C3.7 49.5-1.8 39.8 0.5 31.4 1.9 26.3 6.6 20.9 11.1 19.3c2.4-0.9 3.7-2.1 4.1-3.8 3-12.9 16.9-19.3 28.1-13 2.4 1.3 5.2 3.9 6.4 5.8 1.8 2.9 2.4 3.3 5 2.7 4.3-0.9 11.3 2.7 13.3 7 0.9 1.8 1.6 4.8 1.6 6.5 0 1.9 0.5 3.1 1.3 3.1 0.7 0 2.5 1.3 4 2.8 7.3 7.7 4.5 19.4-5.4 22.2 -4.9 1.4-52.5 1.1-57.2-0.4Zm59.2-3.1c3.2-1.7 5.1-5.4 5.1-9.9 0-4.2-2.4-7.5-6.7-9.3 -3-1.3-3.4-1.8-3-4.1 0.3-1.5-0.1-4.1-0.8-5.9 -1.9-4.5-5.5-6.6-10.9-6.2 -4.1 0.3-4.6 0.1-6.8-3.1 -4-5.9-7.2-7.6-14.3-7.6 -4.9 0-7 0.5-9.2 2.1 -4 3-7.3 8.2-7.3 11.6 0 2.2-0.6 3.1-2.7 3.8 -5.2 1.8-7.7 3.6-10 6.9 -4.5 6.8-2.2 16.7 5 21.1 3 1.9 5.1 2 31.1 2 22.1 0 28.4-0.3 30.6-1.4Z" fill="#e5e5e5"/></svg>