<?xml version="1.0" encoding="UTF-8" standalone="no"?>
<!-- Created with Inkscape (http://www.inkscape.org/) -->

<svg
   xmlns:dc="http://purl.org/dc/elements/1.1/"
   xmlns:cc="http://creativecommons.org/ns#"
   xmlns:rdf="http://www.w3.org/1999/02/22-rdf-syntax-ns#"
   xmlns:svg="http://www.w3.org/2000/svg"
   xmlns="http://www.w3.org/2000/svg"
   xmlns:sodipodi="http://sodipodi.sourceforge.net/DTD/sodipodi-0.dtd"
   xmlns:inkscape="http://www.inkscape.org/namespaces/inkscape"
   version="1.1"
   id="svg3713"
   width="34.802147"
   height="38.252293"
   viewBox="0 0 34.802147 38.252293"
   sodipodi:docname="services_erp.svg"
   inkscape:version="0.92.3 (2405546, 2018-03-11)">
  <metadata
     id="metadata3719">
    <rdf:RDF>
      <cc:Work
         rdf:about="">
        <dc:format>image/svg+xml</dc:format>
        <dc:type
           rdf:resource="http://purl.org/dc/dcmitype/StillImage" />
        <dc:title />
      </cc:Work>
    </rdf:RDF>
  </metadata>
  <defs
     id="defs3717" />
  <sodipodi:namedview
     pagecolor="#ffffff"
     bordercolor="#666666"
     borderopacity="1"
     objecttolerance="10"
     gridtolerance="10"
     guidetolerance="10"
     inkscape:pageopacity="0"
     inkscape:pageshadow="2"
     inkscape:window-width="1920"
     inkscape:window-height="1017"
     id="namedview3715"
     showgrid="false"
     fit-margin-top="0"
     fit-margin-left="0"
     fit-margin-right="0"
     fit-margin-bottom="0"
     inkscape:zoom="8"
     inkscape:cx="-5.356682"
     inkscape:cy="6.5814873"
     inkscape:window-x="-8"
     inkscape:window-y="-8"
     inkscape:window-maximized="1"
     inkscape:current-layer="svg3713" />
  <path
     style="fill:#e5e5e5;stroke-width:0.49085915;fill-opacity:1"
     d="M 15.055651,37.28403 C 14.329327,36.712702 13.644221,35.554296 13.463772,34.592409 13.197346,33.172275 12.716546,32.67064 10.439943,31.43758 7.9764359,30.103287 7.6401939,30.036318 6.7023859,30.693188 4.2991399,32.376487 0,30.664808 0,28.024382 c 0,-1.524965 1.0366079,-3.432688 2.037929,-3.750495 0.787038,-0.249789 0.907226,-0.831301 0.907226,-4.389408 0,-3.902706 -0.07137,-4.172829 -1.4725791,-5.574044 C -0.275852,12.562005 -0.401665,10.951071 1.0646299,9.0869746 2.057419,7.8248514 2.311474,7.7523221 4.8293219,8.0121885 7.2295819,8.2599277 7.8436369,8.1167793 10.35957,6.7230446 12.679456,5.4379186 13.243018,4.8713175 13.485159,3.5806048 13.807882,1.8603776 15.778805,0 17.278536,0 c 2.116696,0 4.276457,1.8972908 4.303657,3.7806449 0.02405,1.6642957 5.498882,4.7400912 7.568748,4.2521595 2.257449,-0.5321545 3.363771,-0.2667419 4.595628,1.1024242 1.520764,1.6903004 1.398535,3.4085244 -0.368139,5.1752064 -1.386599,1.386597 -1.472579,1.698024 -1.472579,5.333858 0,3.19088 0.156906,3.972644 0.903821,4.50269 2.248084,1.595383 2.618612,4.281059 0.836498,6.063169 -1.379636,1.379634 -3.936939,1.616674 -5.45066,0.505232 -0.852535,-0.625971 -1.249894,-0.536545 -3.775261,0.849589 -2.264603,1.243007 -2.825529,1.793595 -2.838052,2.785757 -0.01813,1.442384 -0.779385,2.564044 -2.283699,3.365249 -1.559033,0.830343 -2.798515,0.704155 -4.242844,-0.431949 z m 4.346739,-1.466174 c 0.713229,-0.788109 0.8043,-1.275847 0.435356,-2.33158 -0.641388,-1.835348 -3.191781,-2.140011 -4.328529,-0.517072 -1.004024,1.433439 -0.987076,1.678165 0.198261,2.863515 1.253483,1.253482 2.55179,1.248259 3.694902,-0.01501 z m -2.716283,-9.646527 c 0.0029,-3.623895 -0.0956,-4.047833 -1.00656,-4.336964 -0.903982,-0.286926 -1.877464,-1.876369 -2.612882,-4.266191 -0.142009,-0.46148 -1.402729,-1.419027 -2.801597,-2.127887 C 7.7445889,14.163065 7.7067849,14.15947 6.0697029,15.041095 l -1.651974,0.889644 0.01892,3.692538 c 0.01853,3.61587 0.05164,3.713097 1.595293,4.683001 0.940583,0.590981 1.799858,1.67986 2.130459,2.699725 0.416302,1.284245 1.199278,2.088702 3.1488531,3.235243 2.498204,1.46919 2.646456,1.496592 3.983268,0.736289 1.346129,-0.765609 1.388572,-0.912197 1.39158,-4.806206 z m 9.814465,1.505698 c 0.0071,-1.290308 1.669829,-3.463734 2.963783,-3.874419 0.854206,-0.271117 0.968912,-0.755285 0.968912,-4.089696 0,-3.7672 -0.0063,-3.785587 -1.602736,-4.645304 -1.590346,-0.856457 -1.624511,-0.851341 -4.417733,0.661535 -2.254952,1.221334 -2.814994,1.76591 -2.814994,2.737257 0,1.208495 -1.947698,3.622265 -2.922845,3.622265 -0.316729,0 -0.51317,1.59707 -0.51317,4.1723 0,3.216651 0.154862,4.172306 0.676184,4.172306 0.371922,0 0.947573,0.32698 1.279265,0.726662 0.523077,0.630268 0.986066,0.516322 3.490289,-0.859003 2.105379,-1.156279 2.888796,-1.866818 2.893045,-2.623903 z M 5.7014329,29.56675 c 1.098172,-0.723458 1.215838,-2.404866 0.2516041,-3.595624 -0.8026531,-0.991231 -1.1411101,-1.091934 -2.292101,-0.681988 -1.9098,0.68021 -2.517769,1.821886 -1.8042,3.388006 0.419406,0.920486 0.947194,1.26322 1.936882,1.257752 0.748214,-0.0039 1.6067259,-0.169798 1.907801,-0.368139 z M 33.11424,28.29574 c 0.421034,-1.204432 0.328479,-1.531908 -0.659091,-2.33158 -1.564581,-1.266921 -2.825204,-1.168069 -3.785025,0.296821 -0.746134,1.138749 -0.744775,1.317632 0.01892,2.483145 1.178447,1.798538 3.730145,1.539997 4.425216,-0.448371 z M 19.837746,19.035658 c 0.562958,-1.610909 -0.689946,-3.328165 -2.428222,-3.328165 -1.920641,0 -3.004862,2.268267 -1.863276,3.898107 1.101065,1.571994 3.661816,1.231908 4.291498,-0.569942 z m -4.40458,-4.080066 c 1.229578,-0.930001 3.20789,-0.919606 4.554991,0.02405 0.975805,0.683481 1.287022,0.634785 3.790664,-0.59311 2.338714,-1.147015 2.727575,-1.533092 2.727575,-2.708053 0,-0.753675 0.03192,-1.535222 0.07072,-1.7367704 0.03903,-0.201535 -1.192371,-1.1045009 -2.73614,-2.0065633 C 21.209945,6.3977703 20.977999,6.3458242 20.138156,7.1058752 18.981503,8.1526299 16.572486,8.211908 15.074629,7.2304971 13.963613,6.5025286 13.734753,6.5493563 10.998352,8.064565 9.4038079,8.9474986 8.154403,9.8135136 8.221892,9.9890386 c 0.06749,0.1755144 0.122725,0.8531264 0.122725,1.5057704 0,0.913488 0.59319,1.532429 2.577012,2.688895 2.94016,1.713964 3.206042,1.759463 4.511551,0.772024 z M 6.3484839,12.673167 c 0.673964,-1.204695 0.656668,-1.404431 -0.203939,-2.3554 -1.392359,-1.5385343 -3.7641589,-1.1859654 -4.407784,0.655227 -0.422757,1.209364 -0.328557,1.531817 0.6878071,2.354832 1.528905,1.238033 3.0026109,0.992162 3.9239189,-0.654659 z M 32.455149,13.304575 C 33.43207,12.513513 33.532069,12.172502 33.123103,11.02671 32.4418,9.1179146 30.816312,8.6383046 29.237467,9.8802226 c -1.514044,1.1909484 -1.585691,2.0640624 -0.276794,3.3729744 1.224865,1.224868 2.03063,1.236715 3.494458,0.05137 z M 19.846699,4.7752808 c 1.0038,-2.8720422 -3.204856,-4.4931539 -4.650782,-1.7914141 -0.419966,0.7847085 -0.36187,1.2805663 0.261459,2.2319175 1.144045,1.7460333 3.715284,1.4879908 4.389305,-0.4405034 z"
     id="path3727"
     inkscape:connector-curvature="0" />
</svg>
