<svg viewBox="0 0 80 62" width="80" height="62" xmlns="http://www.w3.org/2000/svg"><path d="M2 60C0.1 58.1 0 56.7 0 31 0 5.3 0.1 3.9 2 2 3.9 0.1 5.3 0 40 0c34.7 0 36.1 0.1 38 2 1.9 1.9 2 3.3 2 29 0 25.7-0.1 27.1-2 29 -1.9 1.9-3.3 2-38 2C5.3 62 3.9 61.9 2 60ZM76 37.5V17H40 4V37.5 58H40 76ZM21.2 42.7C18.9 40.4 17 37.7 17 36.9c0-0.8 2.2-3.7 5-6.4 3.9-3.8 5.3-4.7 6.2-3.7 0.9 0.9 0.3 2.2-3.2 5.7L20.6 37 24.8 41.3C28.8 45.3 29.3 47 26.5 47 25.9 47 23.5 45.1 21.2 42.7ZM33 45.8C33 43.2 43.4 26 45.1 26 47 26 45.9 29 40.8 37.9 36.2 46 33 49.2 33 45.8Zm18.6 0.5c-0.4-0.4 1.2-2.6 3.5-5L59.4 37 55 32.5C51.6 29 50.9 27.7 51.8 26.8 52.7 25.9 54.1 26.7 58 30.5 60.8 33.2 63 36.1 63 36.9 63 38.7 55.1 47 53.5 47 52.8 47 52 46.7 51.6 46.3ZM76 9V4H40 4V9 14H40 76ZM7.4 8.9C6.7 7.7 8.9 5.8 10.2 6.6 10.6 6.9 11 7.8 11 8.6 11 10.3 8.4 10.5 7.4 8.9ZM16 8.7C16 6.8 17 6 18.6 6.7 20.7 7.5 20.3 10 18 10 16.9 10 16 9.4 16 8.7Zm8-0.1C24 7.1 26.4 5.8 27.4 6.7 28.7 8.1 27.9 10 26 10 24.9 10 24 9.4 24 8.6Z" fill="#e5e5e5"/></svg>