<svg viewBox="0 0 76.9 80" width="77" height="80" xmlns="http://www.w3.org/2000/svg"><path d="M0 70V60H10 20V70 80H10 0Zm16 0V64H10 4v6 6h6 6Zm12.5 2C27 69.5 29.7 69 43.6 69c13.3 0 14.5 0.1 14.2 1.8 -0.3 1.6-1.9 1.8-14.5 2 -8.9 0.2-14.4-0.1-14.8-0.7ZM61.7 71.6C60.8 69.3 61.9 69 69.7 69c6.5 0 7.4 0.2 7.1 1.8 -0.3 1.4-1.6 1.8-7.5 2 -5.5 0.2-7.2 0-7.7-1.2ZM0 40V30H10 20V40 50H10 0Zm16 0V34H10 4v6 6h6 6Zm-10 2.5c-1.7-2.1-0.5-4.8 1.8-4.1 1.1 0.3 2.4 0 3.1-0.9C12.7 35.4 15 35.6 15 37.8 15 40 11 44 8.8 44 7.9 44 6.7 43.3 6 42.5ZM28.5 42C27.1 39.7 29.6 39 39.6 39c9.5 0 10.5 0.2 10.2 1.8 -0.3 1.5-1.7 1.8-10.5 2 -6.2 0.2-10.4-0.1-10.8-0.7Zm26 0C53.1 39.7 55.6 39 66.1 39c10 0 11 0.2 10.7 1.8 -0.3 1.5-1.8 1.8-11 2 -6.6 0.2-10.9-0.1-11.3-0.7ZM0 10V0H10 20V10 20H10 0Zm16 0V4H10 4v6 6h6 6ZM6.7 13.2C4.4 10.6 4.5 8.6 7 9.3 8.1 9.6 9.2 9.4 9.6 8.9 9.9 8.4 11 7.5 12.1 7c3.4-1.8 3.6 1.7 0.4 5.1 -3.3 3.5-3.6 3.5-5.8 1.1ZM28.5 12C27 9.5 29.8 9 45.6 9 61.3 9 62 9.1 62 11 62 12.9 61.3 13 45.6 13 35.7 13 28.9 12.6 28.5 12Z" fill="#e5e5e5"/></svg>